# Blender v2.92.0 OBJ File: ''
# www.blender.org
mtllib tree.mtl
o oakTree_(1)
v -1.463632 1.849513 5.090232
v -0.983840 1.849513 3.775167
v -0.983838 2.127885 3.775168
v -1.463632 2.127885 5.090232
v -1.463633 2.127889 -5.090230
v -0.983838 2.127889 -3.775167
v -0.983840 1.849517 -3.775166
v -1.463632 1.849517 -5.090230
v -1.463632 0.017466 -5.090230
v -0.983840 0.017466 -3.775166
v -1.302855 0.017466 -3.700343
v -1.763175 0.017466 -4.959537
v -1.763171 0.017462 4.959538
v -1.302852 0.017462 3.700345
v -0.983840 0.017462 3.775168
v -1.463632 0.017462 5.090232
v -1.302855 1.849517 -3.700343
v -1.763175 1.849517 -4.959537
v -1.763171 1.849513 4.959538
v -1.302852 1.849513 3.700345
v -5.126786 0.011764 -0.208178
v -3.899104 0.011764 -0.208178
v -3.899104 0.011764 0.208178
v -5.126786 0.011764 0.208178
v -5.126786 1.849515 -0.208178
v -3.899104 1.849515 -0.208178
v -3.899104 1.849515 0.208178
v -5.126786 1.849515 0.208178
v 1.445221 1.849517 -5.097692
v 0.965429 1.849517 -3.782628
v 0.965428 2.127889 -3.782629
v 1.445221 2.127889 -5.097692
v 1.445222 2.127885 5.082769
v 0.965428 2.127885 3.767705
v 0.965430 1.849513 3.767705
v 1.445222 1.849513 5.082769
v 1.445222 0.017462 5.082769
v 0.965429 0.017462 3.767705
v 1.284445 0.017462 3.692882
v 1.744765 0.017462 4.952076
v 1.744761 0.017466 -4.967000
v 1.284442 0.017466 -3.707807
v 0.965429 0.017466 -3.782629
v 1.445221 0.017466 -5.097693
v 1.284445 1.849513 3.692881
v 1.744765 1.849513 4.952076
v 1.744761 1.849517 -4.967000
v 1.284442 1.849517 -3.707806
v 5.108375 0.011764 0.200717
v 3.880694 0.011764 0.200716
v 3.880694 0.011764 -0.215639
v 5.108375 0.011764 -0.215640
v 5.108375 1.849515 0.200717
v 3.880694 1.849515 0.200716
v 3.880694 1.849515 -0.215639
v 5.108375 1.849515 -0.215640
v -1.763175 2.127889 -4.959537
v -1.302854 2.127889 -3.700343
v -1.302852 2.127885 3.700345
v -1.763170 2.127885 4.959538
v -3.418071 2.127889 -3.882183
v -2.431519 2.127887 -2.974337
v -1.911102 2.127887 -3.411696
v -2.634539 2.127889 -4.495214
v -2.431518 1.849515 -2.974337
v -1.911102 1.849517 -3.411696
v -2.634539 1.849517 -4.495214
v -3.418071 1.849517 -3.882183
v -2.634536 2.127885 4.495218
v -1.911100 2.127887 3.411698
v -2.431517 2.127887 2.974340
v -3.418071 2.127885 3.882185
v -1.911100 1.849512 3.411698
v -2.431517 1.849514 2.974340
v -3.418071 1.849513 3.882185
v -2.634536 1.849513 4.495218
v -4.576509 2.127887 2.371289
v -3.429204 2.127887 1.709500
v -3.703987 2.127887 0.943838
v -4.931669 2.127887 1.482600
v -3.429204 1.849514 1.709500
v -3.703987 1.849514 0.943838
v -4.931669 1.849515 1.482600
v -4.576509 1.849515 2.371289
v -3.850321 2.127887 -0.542349
v -5.078002 2.127887 -0.813747
v -5.126786 2.127887 -0.208178
v -3.899104 2.127887 -0.208178
v -3.850321 1.849515 -0.542349
v -5.078002 1.849515 -0.813747
v -4.059456 2.127887 -3.178540
v -2.992528 2.127887 -2.393722
v -2.992528 1.849515 -2.393722
v -4.059456 1.849515 -3.178540
v -2.992527 2.127887 2.393725
v -4.059456 2.127887 3.178542
v -2.992527 1.849514 2.393725
v -4.059456 1.849514 3.178542
v -4.576510 2.127887 -2.371287
v -3.429204 2.127887 -1.709497
v -3.429204 1.849515 -1.709497
v -4.576510 1.849515 -2.371287
v -4.931669 2.127887 -1.482597
v -3.703987 2.127887 -0.943836
v -3.703987 1.849515 -0.943836
v -4.931669 1.849515 -1.482597
v -3.850320 2.127887 0.542350
v -5.078002 2.127887 0.813748
v -3.850321 1.849515 0.542350
v -5.078002 1.849515 0.813748
v -5.126785 2.127887 0.208178
v -3.899104 2.127887 0.208178
v 1.744765 2.127885 4.952076
v 1.284444 2.127885 3.692882
v 1.284442 2.127889 -3.707806
v 1.744760 2.127889 -4.967000
v 3.399661 2.127885 3.874721
v 2.413108 2.127887 2.966876
v 1.892692 2.127887 3.404234
v 2.616129 2.127885 4.487755
v 2.413108 1.849514 2.966876
v 1.892692 1.849513 3.404234
v 2.616129 1.849513 4.487755
v 3.399661 1.849513 3.874721
v 2.616126 2.127889 -4.502677
v 1.892690 2.127887 -3.419160
v 2.413107 2.127887 -2.981801
v 3.399661 2.127889 -3.889646
v 1.892690 1.849516 -3.419160
v 2.413107 1.849514 -2.981801
v 3.399660 1.849517 -3.889646
v 2.616126 1.849517 -4.502677
v 4.558099 2.127887 -2.378751
v 3.410793 2.127887 -1.716961
v 3.685577 2.127887 -0.951300
v 4.913258 2.127887 -1.490061
v 3.410793 1.849514 -1.716961
v 3.685577 1.849514 -0.951300
v 4.913258 1.849515 -1.490061
v 4.558099 1.849515 -2.378751
v 3.831910 2.127887 0.534887
v 5.059592 2.127887 0.806286
v 5.108375 2.127887 0.200717
v 3.880694 2.127887 0.200716
v 3.831910 1.849515 0.534888
v 5.059592 1.849515 0.806286
v 4.041046 2.127887 3.171078
v 2.974117 2.127887 2.386260
v 2.974117 1.849515 2.386260
v 4.041046 1.849514 3.171078
v 2.974116 2.127887 -2.401186
v 4.041046 2.127887 -3.186003
v 2.974116 1.849514 -2.401186
v 4.041046 1.849515 -3.186003
v 4.558099 2.127887 2.363825
v 3.410794 2.127887 1.702036
v 3.410794 1.849515 1.702036
v 4.558099 1.849515 2.363825
v 4.913259 2.127887 1.475136
v 3.685577 2.127887 0.936374
v 3.685577 1.849515 0.936374
v 4.913259 1.849515 1.475136
v 3.831910 2.127887 -0.549812
v 5.059591 2.127887 -0.821210
v 3.831910 1.849515 -0.549812
v 5.059592 1.849515 -0.821210
v 5.108375 2.127887 -0.215640
v 3.880694 2.127887 -0.215639
vt 0.577311 0.843379
vt 0.483884 0.843670
vt 0.501551 0.824045
vt 0.564898 0.828133
vt 0.137781 0.432626
vt 0.201472 0.424247
vt 0.217744 0.436137
vt 0.130274 0.452960
vt 0.274512 0.587388
vt 0.261965 0.652423
vt 0.231999 0.664414
vt 0.258152 0.569750
vt 0.836657 0.544389
vt 0.850026 0.636501
vt 0.823977 0.625157
vt 0.819992 0.561828
vt 0.388909 0.563673
vt 0.388909 0.697795
vt 0.375898 0.730077
vt 0.362972 0.449286
vt 0.383826 0.541254
vt 0.237299 0.477783
vt 0.697915 0.526120
vt 0.711284 0.424589
vt 0.850026 0.442858
vt 0.736489 0.700739
vt 0.725000 0.680433
vt 0.694959 0.557504
vt 0.838950 0.114811
vt 0.853041 0.206459
vt 0.819743 0.190230
vt 0.817719 0.136738
vt 0.699035 0.093718
vt 0.713126 0.000251
vt 0.853041 0.021343
vt 0.732698 0.266693
vt 0.719052 0.239428
vt 0.695100 0.132763
vt 0.345106 0.448785
vt 0.251891 0.448743
vt 0.269589 0.429226
vt 0.332775 0.433531
vt 0.600927 0.403745
vt 0.664623 0.395329
vt 0.680905 0.407212
vt 0.593430 0.424087
vt 0.144105 0.849763
vt 0.152128 0.941168
vt 0.132924 0.928689
vt 0.123663 0.869912
vt 0.141949 0.573262
vt 0.155318 0.665373
vt 0.129268 0.654030
vt 0.125284 0.590700
vt 0.001255 0.839263
vt 0.009278 0.730113
vt 0.152128 0.740613
vt 0.045653 0.999750
vt 0.035176 0.980706
vt 0.000251 0.869868
vt 0.003207 0.554992
vt 0.016576 0.453461
vt 0.155318 0.471730
vt 0.041781 0.729612
vt 0.030292 0.709305
vt 0.000251 0.586376
vt 0.808037 0.832223
vt 0.822502 0.779558
vt 0.849894 0.764748
vt 0.835446 0.858242
vt 0.694959 0.849151
vt 0.704427 0.738018
vt 0.720251 0.701240
vt 0.714307 0.970447
vt 0.699859 0.879870
vt 0.849894 0.948819
vt 0.129259 0.417464
vt 0.205846 0.401533
vt 0.227352 0.407113
vt 0.108322 0.429221
vt 0.493516 0.800800
vt 0.573033 0.812731
vt 0.469999 0.809216
vt 0.590972 0.820217
vt 0.115184 0.294136
vt 0.209697 0.299922
vt 0.207249 0.353195
vt 0.118126 0.355656
vt 0.231498 0.300247
vt 0.229270 0.354039
vt 0.099771 0.357286
vt 0.005966 0.358409
vt 0.001625 0.304659
vt 0.097515 0.294557
vt 0.579793 0.751317
vt 0.489549 0.751396
vt 0.486069 0.697612
vt 0.581065 0.690137
vt 0.466874 0.752959
vt 0.464005 0.698395
vt 0.598620 0.690494
vt 0.692987 0.699621
vt 0.688829 0.752339
vt 0.597629 0.752548
vt 0.582080 0.572726
vt 0.487400 0.567413
vt 0.488332 0.502827
vt 0.582457 0.513546
vt 0.464986 0.566965
vt 0.466644 0.502082
vt 0.600441 0.513725
vt 0.694345 0.505281
vt 0.692770 0.569371
vt 0.599560 0.573056
vt 0.202888 0.073939
vt 0.111632 0.074308
vt 0.112286 0.032406
vt 0.203370 0.047346
vt 0.224461 0.073329
vt 0.224547 0.048119
vt 0.092993 0.074369
vt 0.004170 0.077407
vt 0.002083 0.052163
vt 0.091792 0.031400
vt 0.113749 0.235635
vt 0.209378 0.235799
vt 0.231498 0.235223
vt 0.000251 0.238866
vt 0.096420 0.235817
vt 0.485340 0.632904
vt 0.581624 0.631616
vt 0.463161 0.632834
vt 0.598976 0.631906
vt 0.694458 0.634522
vt 0.112726 0.177059
vt 0.206675 0.170822
vt 0.228622 0.169871
vt 0.002265 0.173427
vt 0.095371 0.177216
vt 0.111921 0.118492
vt 0.205049 0.106717
vt 0.226205 0.105825
vt 0.001350 0.109521
vt 0.094196 0.118592
vt 0.694392 0.803751
vt 0.000379 0.412018
vt 0.490173 0.469553
vt 0.582865 0.468325
vt 0.468268 0.469000
vt 0.601922 0.468833
vt 0.691923 0.472850
vt 0.115321 0.002057
vt 0.206522 0.015689
vt 0.226839 0.017440
vt 0.094495 0.000251
vt 0.489960 0.442968
vt 0.582427 0.424589
vt 0.603905 0.424775
vt 0.694458 0.447306
vt 0.468408 0.442854
vt 0.592394 0.388586
vt 0.668986 0.372608
vt 0.690499 0.378178
vt 0.571459 0.400358
vt 0.261655 0.406005
vt 0.340947 0.418194
vt 0.238162 0.414318
vt 0.358817 0.425725
vt 0.578237 0.265204
vt 0.672791 0.270969
vt 0.670364 0.324258
vt 0.581217 0.326763
vt 0.694598 0.271291
vt 0.692390 0.325093
vt 0.562854 0.328406
vt 0.469019 0.329617
vt 0.464624 0.275858
vt 0.560551 0.265637
vt 0.347908 0.356953
vt 0.257876 0.356702
vt 0.254602 0.303030
vt 0.349399 0.295939
vt 0.235247 0.358179
vt 0.232585 0.303727
vt 0.366904 0.296359
vt 0.460989 0.305770
vt 0.456666 0.358343
vt 0.365694 0.358244
vt 0.350877 0.178971
vt 0.256447 0.173151
vt 0.257567 0.108738
vt 0.351528 0.120210
vt 0.234107 0.172611
vt 0.236034 0.107971
vt 0.369357 0.120455
vt 0.462660 0.111983
vt 0.461114 0.175862
vt 0.368262 0.179367
vt 0.666203 0.044926
vt 0.574571 0.044010
vt 0.574698 0.000251
vt 0.666646 0.018692
vt 0.687788 0.044136
vt 0.687511 0.018684
vt 0.555649 0.044279
vt 0.466070 0.048347
vt 0.463604 0.023026
vt 0.553391 0.000856
vt 0.576774 0.206620
vt 0.672469 0.206821
vt 0.694598 0.206256
vt 0.463161 0.210052
vt 0.559406 0.206813
vt 0.254123 0.238471
vt 0.350181 0.237603
vt 0.231999 0.238310
vt 0.367467 0.237957
vt 0.462660 0.240840
vt 0.575734 0.147849
vt 0.669827 0.141800
vt 0.691792 0.140885
vt 0.464971 0.144581
vt 0.558295 0.148018
vt 0.574919 0.088851
vt 0.668322 0.077669
vt 0.689530 0.076785
vt 0.463605 0.080620
vt 0.557037 0.088982
vt 0.462043 0.409649
vt 0.463478 0.383244
vt 0.259299 0.075525
vt 0.352154 0.075574
vt 0.237684 0.075285
vt 0.370901 0.076004
vt 0.460153 0.079734
vt 0.351455 0.033298
vt 0.258904 0.048497
vt 0.255689 0.015993
vt 0.348225 0.002236
vt 0.237082 0.049728
vt 0.234354 0.017817
vt 0.369786 0.000251
vt 0.372398 0.032383
vt 0.462543 0.054325
vn 0.9394 -0.0000 0.3427
vn 0.9394 -0.0000 -0.3427
vn -0.0000 -1.0000 -0.0000
vn 0.2283 -0.0000 0.9736
vn -0.9392 -0.0000 0.3433
vn -0.3999 0.0000 -0.9166
vn -0.9392 0.0000 -0.3433
vn 0.2283 -0.0000 -0.9736
vn -0.3999 -0.0000 0.9166
vn 0.0000 0.0000 -1.0000
vn 1.0000 0.0000 0.0000
vn 0.0000 -0.0000 1.0000
vn -1.0000 0.0000 0.0000
vn -0.9394 -0.0000 -0.3427
vn -0.9394 -0.0000 0.3427
vn -0.2283 -0.0000 -0.9736
vn 0.9392 -0.0000 -0.3433
vn 0.3999 -0.0000 0.9166
vn 0.9392 -0.0000 0.3433
vn -0.2283 -0.0000 0.9736
vn 0.3999 0.0000 -0.9166
vn -0.0000 1.0000 0.0000
vn 0.3650 -0.0000 0.9310
vn -0.4530 0.0000 -0.8915
vn 0.3650 0.0000 -0.9310
vn -0.4530 0.0000 0.8915
vn 0.6854 -0.0000 0.7282
vn 0.5410 -0.0000 0.8410
vn 0.5409 -0.0000 0.8411
vn -0.5453 0.0000 -0.8382
vn -0.6787 -0.0000 -0.7344
vn 0.5409 -0.0000 -0.8411
vn 0.5405 0.0000 -0.8414
vn 0.6854 -0.0000 -0.7281
vn -0.6788 -0.0000 0.7343
vn -0.5457 0.0000 0.8380
vn 0.8977 -0.0000 -0.4406
vn 0.9405 -0.0000 -0.3398
vn 0.9404 -0.0000 -0.3401
vn -0.9519 -0.0000 0.3065
vn -0.8893 0.0000 0.4573
vn 0.9666 -0.0000 0.2564
vn 0.9979 -0.0000 0.0649
vn -0.9885 0.0000 -0.1513
vn -0.9989 -0.0000 -0.0477
vn 0.7850 0.0000 0.6195
vn -0.7934 0.0000 -0.6087
vn 0.7850 0.0000 -0.6195
vn -0.7934 0.0000 0.6087
vn 0.8977 -0.0000 0.4406
vn -0.8893 0.0000 -0.4573
vn 0.9404 -0.0000 0.3401
vn -0.9519 -0.0000 -0.3065
vn 0.9666 -0.0000 -0.2564
vn -0.9885 -0.0000 0.1513
vn 0.9979 -0.0000 -0.0649
vn -0.9989 -0.0000 0.0477
vn -0.3650 -0.0000 -0.9310
vn 0.4530 0.0000 0.8915
vn -0.3650 0.0000 0.9310
vn 0.4530 0.0000 -0.8915
vn -0.6854 -0.0000 -0.7281
vn -0.5410 0.0000 -0.8410
vn 0.5453 0.0000 0.8382
vn 0.6787 -0.0000 0.7344
vn -0.5405 0.0000 0.8414
vn -0.6854 0.0000 0.7282
vn 0.6788 -0.0000 -0.7343
vn 0.6787 -0.0000 -0.7344
vn 0.5460 -0.0000 -0.8378
vn -0.8977 0.0000 0.4406
vn -0.9404 0.0000 0.3401
vn 0.9519 -0.0000 -0.3065
vn 0.8893 0.0000 -0.4573
vn -0.9666 -0.0000 -0.2564
vn -0.9979 0.0000 -0.0649
vn 0.9885 -0.0000 0.1512
vn 0.9989 -0.0000 0.0477
vn -0.7850 0.0000 -0.6195
vn 0.7934 0.0000 0.6087
vn -0.7850 0.0000 0.6195
vn 0.7934 -0.0000 -0.6087
vn -0.8978 -0.0000 -0.4403
vn 0.8893 0.0000 0.4573
vn -0.9404 -0.0000 -0.3401
vn 0.9519 -0.0000 0.3065
vn -0.9666 0.0000 0.2564
vn 0.9885 0.0000 -0.1513
vn -0.9979 0.0000 0.0649
vn 0.9989 0.0000 -0.0477
usemtl initialShadingGroup
s off
f 1/1/1 2/2/1 3/3/1 4/4/1
f 5/5/2 6/6/2 7/7/2 8/8/2
f 9/9/3 10/10/3 11/11/3 12/12/3
f 13/13/3 14/14/3 15/15/3 16/16/3
f 8/17/2 7/18/2 10/10/2 9/9/2
f 7/18/4 17/19/4 11/11/4 10/10/4
f 17/20/5 18/21/5 12/12/5 11/22/5
f 18/21/6 8/17/6 9/9/6 12/12/6
f 19/23/7 20/24/7 14/25/7 13/13/7
f 20/26/8 2/27/8 15/15/8 14/14/8
f 2/27/1 1/28/1 16/16/1 15/15/1
f 1/28/9 19/23/9 13/13/9 16/16/9
f 21/29/3 22/30/3 23/31/3 24/32/3
f 25/33/10 26/34/10 22/35/10 21/29/10
f 26/36/11 27/37/11 23/31/11 22/30/11
f 27/37/12 28/38/12 24/32/12 23/31/12
f 28/38/13 25/33/13 21/29/13 24/32/13
f 29/39/14 30/40/14 31/41/14 32/42/14
f 33/43/15 34/44/15 35/45/15 36/46/15
f 37/47/3 38/48/3 39/49/3 40/50/3
f 41/51/3 42/52/3 43/53/3 44/54/3
f 36/55/15 35/56/15 38/57/15 37/47/15
f 35/58/16 45/59/16 39/49/16 38/48/16
f 45/59/17 46/60/17 40/50/17 39/49/17
f 46/60/18 36/55/18 37/47/18 40/50/18
f 47/61/19 48/62/19 42/63/19 41/51/19
f 48/64/20 30/65/20 43/53/20 42/52/20
f 30/65/14 29/66/14 44/54/14 43/53/14
f 29/66/21 47/61/21 41/51/21 44/54/21
f 49/67/3 50/68/3 51/69/3 52/70/3
f 53/71/12 54/72/12 50/68/12 49/67/12
f 54/72/13 55/73/13 51/69/13 50/68/13
f 55/74/10 56/75/10 52/70/10 51/76/10
f 56/75/11 53/71/11 49/67/11 52/70/11
s 1
f 57/77/22 58/78/22 6/6/22 5/5/22
f 58/78/23 17/79/23 7/7/4 6/6/4
f 8/8/6 18/80/24 57/77/24 5/5/6
f 4/4/22 3/3/22 59/81/22 60/82/22
f 2/2/8 20/83/25 59/81/25 3/3/8
f 60/82/26 19/84/26 1/1/9 4/4/9
f 61/85/22 62/86/22 63/87/22 64/88/22
f 62/86/27 65/89/27 66/90/28 63/87/29
f 67/91/3 66/92/3 65/93/3 68/94/3
f 64/88/30 67/91/30 68/94/31 61/85/31
f 69/95/22 70/96/22 71/97/22 72/98/22
f 70/96/32 73/99/33 74/100/34 71/97/34
f 75/101/3 74/102/3 73/103/3 76/104/3
f 72/98/35 75/101/35 76/104/36 69/95/36
f 77/105/22 78/106/22 79/107/22 80/108/22
f 78/106/37 81/109/37 82/110/38 79/107/39
f 83/111/3 82/112/3 81/113/3 84/114/3
f 80/108/40 83/111/40 84/114/41 77/105/41
f 85/115/22 86/116/22 87/117/22 88/118/22
f 89/119/42 85/115/42 88/118/43 26/120/43
f 90/121/3 89/122/3 26/123/3 25/124/3
f 86/116/44 90/121/44 25/124/45 87/117/45
f 91/125/22 92/126/22 62/86/22 61/85/22
f 92/126/46 93/127/46 65/89/27 62/86/27
f 68/94/3 65/93/3 93/128/3 94/129/3
f 61/85/31 68/94/31 94/129/47 91/125/47
f 72/98/22 71/97/22 95/130/22 96/131/22
f 71/97/34 74/100/34 97/132/48 95/130/48
f 98/133/3 97/134/3 74/102/3 75/101/3
f 96/131/49 98/133/49 75/101/35 72/98/35
f 96/131/22 95/130/22 78/106/22 77/105/22
f 95/130/48 97/132/48 81/109/37 78/106/37
f 84/114/3 81/113/3 97/134/3 98/133/3
f 77/105/41 84/114/41 98/133/49 96/131/49
f 99/135/22 100/136/22 92/126/22 91/125/22
f 100/136/50 101/137/50 93/127/46 92/126/46
f 94/129/3 93/128/3 101/138/3 102/139/3
f 91/125/47 94/129/47 102/139/51 99/135/51
f 103/140/22 104/141/22 100/136/22 99/135/22
f 104/141/52 105/142/52 101/137/50 100/136/50
f 102/139/3 101/138/3 105/143/3 106/144/3
f 99/135/51 102/139/51 106/144/53 103/140/53
f 60/82/22 59/81/22 70/96/22 69/95/22
f 59/81/25 20/83/25 73/99/33 70/96/32
f 76/104/3 73/103/3 20/145/3 19/84/3
f 69/95/36 76/104/36 19/84/26 60/82/26
f 63/87/29 66/90/28 17/79/23 58/78/23
f 64/88/22 63/87/22 58/78/22 57/77/22
f 57/77/24 18/80/24 67/91/30 64/88/30
f 18/80/3 17/146/3 66/92/3 67/91/3
f 107/147/22 108/148/22 80/108/22 79/107/22
f 82/110/38 109/149/54 107/147/54 79/107/39
f 83/111/3 110/150/3 109/151/3 82/112/3
f 80/108/40 108/148/55 110/150/55 83/111/40
f 111/152/22 112/153/22 88/118/22 87/117/22
f 112/153/56 27/154/56 26/120/43 88/118/43
f 87/117/45 25/124/45 28/155/57 111/152/57
f 112/156/22 111/157/22 108/148/22 107/147/22
f 110/150/55 108/148/55 111/157/57 28/158/57
f 109/151/3 110/150/3 28/158/3 27/159/3
f 107/147/54 109/149/54 27/160/56 112/156/56
f 104/141/22 103/140/22 86/116/22 85/115/22
f 103/140/53 106/144/53 90/121/44 86/116/44
f 106/144/3 105/143/3 89/122/3 90/121/3
f 105/142/52 104/141/52 85/115/42 89/119/42
f 113/161/22 114/162/22 34/44/22 33/43/22
f 114/162/58 45/163/58 35/45/16 34/44/16
f 36/46/18 46/164/59 113/161/59 33/43/18
f 32/42/22 31/41/22 115/165/22 116/166/22
f 30/40/20 48/167/60 115/165/60 31/41/20
f 116/166/61 47/168/61 29/39/21 32/42/21
f 117/169/22 118/170/22 119/171/22 120/172/22
f 118/170/62 121/173/62 122/174/63 119/171/63
f 123/175/3 122/176/3 121/177/3 124/178/3
f 120/172/64 123/175/64 124/178/65 117/169/65
f 125/179/22 126/180/22 127/181/22 128/182/22
f 126/180/66 129/183/66 130/184/67 127/181/67
f 131/185/3 130/186/3 129/187/3 132/188/3
f 128/182/68 131/185/69 132/188/70 125/179/70
f 133/189/22 134/190/22 135/191/22 136/192/22
f 134/190/71 137/193/71 138/194/72 135/191/72
f 139/195/3 138/196/3 137/197/3 140/198/3
f 136/192/73 139/195/73 140/198/74 133/189/74
f 141/199/22 142/200/22 143/201/22 144/202/22
f 145/203/75 141/199/75 144/202/76 54/204/76
f 146/205/3 145/206/3 54/207/3 53/208/3
f 142/200/77 146/205/77 53/208/78 143/201/78
f 147/209/22 148/210/22 118/170/22 117/169/22
f 148/210/79 149/211/79 121/173/62 118/170/62
f 124/178/3 121/177/3 149/212/3 150/213/3
f 117/169/65 124/178/65 150/213/80 147/209/80
f 128/182/22 127/181/22 151/214/22 152/215/22
f 127/181/67 130/184/67 153/216/81 151/214/81
f 154/217/3 153/218/3 130/186/3 131/185/3
f 152/215/82 154/217/82 131/185/69 128/182/68
f 152/215/22 151/214/22 134/190/22 133/189/22
f 151/214/81 153/216/81 137/193/71 134/190/71
f 140/198/3 137/197/3 153/218/3 154/217/3
f 133/189/74 140/198/74 154/217/82 152/215/82
f 155/219/22 156/220/22 148/210/22 147/209/22
f 156/220/83 157/221/83 149/211/79 148/210/79
f 150/213/3 149/212/3 157/222/3 158/223/3
f 147/209/80 150/213/80 158/223/84 155/219/84
f 159/224/22 160/225/22 156/220/22 155/219/22
f 160/225/85 161/226/85 157/221/83 156/220/83
f 158/223/3 157/222/3 161/227/3 162/228/3
f 155/219/84 158/223/84 162/228/86 159/224/86
f 116/166/22 115/165/22 126/180/22 125/179/22
f 115/165/60 48/167/60 129/183/66 126/180/66
f 132/188/3 129/187/3 48/229/3 47/168/3
f 125/179/70 132/188/70 47/168/61 116/166/61
f 119/171/63 122/174/63 45/163/58 114/162/58
f 120/172/22 119/171/22 114/162/22 113/161/22
f 113/161/59 46/164/59 123/175/64 120/172/64
f 46/164/3 45/230/3 122/176/3 123/175/3
f 163/231/22 164/232/22 136/192/22 135/191/22
f 138/194/72 165/233/87 163/231/87 135/191/72
f 139/195/3 166/234/3 165/235/3 138/196/3
f 136/192/73 164/232/88 166/234/88 139/195/73
f 167/236/22 168/237/22 144/238/22 143/239/22
f 168/237/89 55/240/89 54/241/76 144/238/76
f 143/239/78 53/242/78 56/243/90 167/236/90
f 168/237/22 167/236/22 164/232/22 163/231/22
f 166/234/88 164/232/88 167/236/90 56/243/90
f 165/235/3 166/234/3 56/243/3 55/244/3
f 163/231/87 165/233/87 55/240/89 168/237/89
f 160/225/22 159/224/22 142/200/22 141/199/22
f 159/224/86 162/228/86 146/205/77 142/200/77
f 162/228/3 161/227/3 145/206/3 146/205/3
f 161/226/85 160/225/85 141/199/75 145/203/75
